{
	"asset":{
		"generator":"Khronos glTF Blender I/O v4.0.44",
		"version":"2.0"
	},
	"extensionsUsed":[
		"KHR_materials_clearcoat"
	],
	"scene":0,
	"scenes":[
		{
			"name":"Scene",
			"nodes":[
				0,
				2
			]
		}
	],
	"nodes":[
		{
			"name":"graces-draco2.glb",
			"translation":[
				-0.6244639754295349,
				0.42785176634788513,
				-6.5628275871276855
			]
		},
		{
			"mesh":0,
			"name":"Node_3",
			"translation":[
				0,
				0,
				1.1871063709259033
			]
		},
		{
			"children":[
				1
			],
			"name":"graces-draco2.glb.001"
		}
	],
	"materials":[
		{
			"doubleSided":true,
			"extensions":{
				"KHR_materials_clearcoat":{
					"clearcoatFactor":1,
					"clearcoatRoughnessFactor":0
				}
			},
			"name":"Scene_-_Root",
			"pbrMetallicRoughness":{
				"baseColorFactor":[
					0.78326016664505,
					0.8551163673400879,
					0.5852347612380981,
					1
				],
				"metallicFactor":0.9128440618515015,
				"roughnessFactor":0.6395257115364075
			}
		}
	],
	"meshes":[
		{
			"name":"Mesh_0",
			"primitives":[
				{
					"attributes":{
						"POSITION":0,
						"NORMAL":1
					},
					"indices":2,
					"material":0
				}
			]
		}
	],
	"accessors":[
		{
			"bufferView":0,
			"componentType":5126,
			"count":208732,
			"max":[
				3.1526925563812256,
				4.738935947418213,
				1.1698801517486572
			],
			"min":[
				-2.441307306289673,
				-0.38317790627479553,
				-2.254878282546997
			],
			"type":"VEC3"
		},
		{
			"bufferView":1,
			"componentType":5126,
			"count":208732,
			"type":"VEC3"
		},
		{
			"bufferView":2,
			"componentType":5125,
			"count":866223,
			"type":"SCALAR"
		}
	],
	"bufferViews":[
		{
			"buffer":0,
			"byteLength":2504784,
			"byteOffset":0,
			"target":34962
		},
		{
			"buffer":0,
			"byteLength":2504784,
			"byteOffset":2504784,
			"target":34962
		},
		{
			"buffer":0,
			"byteLength":3464892,
			"byteOffset":5009568,
			"target":34963
		}
	],
	"buffers":[
		{
			"byteLength":8474460,
			"uri":"untitled2.bin"
		}
	]
}
